<svg width="286" height="89" viewBox="0 0 286 89" fill="none" xmlns="http://www.w3.org/2000/svg">
<rect width="286" height="89" fill="white"/>
<path d="M255.986 34.8508L251.683 60.7752H245.809L238.72 47.1548H238.569L236.29 60.7752H229.252L233.556 34.8508H239.531L246.518 48.4206H246.721L248.948 34.8508H255.986Z" fill="#FF5F3F"/>
<path d="M228.072 48.2687C227.599 51.0873 226.662 53.4502 225.261 55.3574C223.861 57.2646 222.16 58.7035 220.16 59.6739C218.16 60.6444 216.021 61.1296 213.742 61.1296C211.312 61.1296 209.202 60.6022 207.413 59.5473C205.624 58.4925 204.32 56.9482 203.502 54.9144C202.683 52.8806 202.519 50.3953 203.008 47.4586C203.464 44.64 204.392 42.2686 205.793 40.3446C207.194 38.4205 208.903 36.9648 210.919 35.9774C212.936 34.9901 215.093 34.4964 217.388 34.4964C219.801 34.4964 221.899 35.0281 223.679 36.0914C225.468 37.1547 226.768 38.7116 227.578 40.7623C228.396 42.813 228.561 45.3151 228.072 48.2687ZM220.983 47.4586C221.219 45.9733 221.236 44.7244 221.034 43.7117C220.831 42.6906 220.405 41.9227 219.755 41.4079C219.105 40.8847 218.232 40.6231 217.135 40.6231C215.886 40.6231 214.78 40.9269 213.818 41.5345C212.856 42.1421 212.059 43.0155 211.426 44.1547C210.793 45.294 210.35 46.6653 210.097 48.2687C209.827 49.7709 209.801 51.0198 210.021 52.0156C210.249 53.0114 210.696 53.7582 211.363 54.2561C212.038 54.754 212.915 55.003 213.995 55.003C215.228 55.003 216.316 54.7076 217.261 54.1169C218.215 53.5262 219.004 52.6696 219.628 51.5472C220.261 50.4249 220.713 49.062 220.983 47.4586Z" fill="#FF5F3F"/>
<path d="M180.261 40.5218L181.223 34.8508H203.755L202.793 40.5218H194.995L191.653 60.7752H184.717L188.058 40.5218H180.261Z" fill="black"/>
<path d="M153.469 60.7752L157.773 34.8508H168.963C170.887 34.8508 172.512 35.201 173.837 35.9015C175.162 36.6019 176.115 37.6104 176.698 38.9268C177.28 40.2433 177.419 41.8214 177.115 43.6611C176.811 45.5176 176.141 47.0831 175.103 48.3573C174.073 49.6232 172.761 50.5852 171.166 51.2434C169.579 51.8932 167.799 52.2181 165.824 52.2181H159.14L160.052 46.7497H165.318C166.145 46.7497 166.87 46.6484 167.495 46.4459C168.119 46.2349 168.626 45.9058 169.014 45.4586C169.402 45.0029 169.655 44.4037 169.773 43.6611C169.892 42.9184 169.832 42.3151 169.596 41.8509C169.36 41.3783 168.967 41.0323 168.419 40.8129C167.87 40.5851 167.191 40.4712 166.381 40.4712H163.9L160.507 60.7752H153.469ZM170.634 48.8763L175.141 60.7752H167.495L163.14 48.8763H170.634Z" fill="black"/>
<path d="M152.289 48.2687C151.816 51.0873 150.88 53.4502 149.479 55.3574C148.078 57.2646 146.378 58.7035 144.378 59.6739C142.377 60.6444 140.238 61.1296 137.96 61.1296C135.529 61.1296 133.42 60.6022 131.631 59.5473C129.841 58.4925 128.538 56.9482 127.719 54.9144C126.9 52.8806 126.736 50.3953 127.225 47.4586C127.681 44.64 128.609 42.2686 130.01 40.3446C131.411 38.4205 133.12 36.9648 135.137 35.9774C137.154 34.9901 139.31 34.4964 141.605 34.4964C144.019 34.4964 146.116 35.0281 147.897 36.0914C149.686 37.1547 150.985 38.7116 151.795 40.7623C152.614 42.813 152.778 45.3151 152.289 48.2687ZM145.2 47.4586C145.437 45.9733 145.453 44.7244 145.251 43.7117C145.048 42.6906 144.622 41.9227 143.972 41.4079C143.323 40.8847 142.449 40.6231 141.352 40.6231C140.103 40.6231 138.998 40.9269 138.036 41.5345C137.074 42.1421 136.276 43.0155 135.643 44.1547C135.01 45.294 134.567 46.6653 134.314 48.2687C134.044 49.7709 134.019 51.0198 134.238 52.0156C134.466 53.0114 134.913 53.7582 135.58 54.2561C136.255 54.754 137.133 55.003 138.213 55.003C139.445 55.003 140.534 54.7076 141.479 54.1169C142.432 53.5262 143.221 52.6696 143.846 51.5472C144.479 50.4249 144.93 49.062 145.2 47.4586Z" fill="black"/>
<path d="M101.706 60.7752L106.01 34.8508H117.2C119.124 34.8508 120.744 35.2306 122.061 35.9901C123.377 36.7496 124.322 37.8171 124.896 39.1927C125.47 40.5682 125.605 42.1758 125.301 44.0155C124.998 45.8889 124.322 47.505 123.276 48.8637C122.238 50.2139 120.913 51.2561 119.301 51.9903C117.698 52.716 115.9 53.0789 113.909 53.0789H107.225L108.137 47.6105H113.402C114.246 47.6105 114.989 47.467 115.63 47.1801C116.272 46.8847 116.791 46.4712 117.187 45.9396C117.584 45.3995 117.841 44.7581 117.959 44.0155C118.078 43.2729 118.023 42.64 117.795 42.1167C117.575 41.5851 117.196 41.18 116.656 40.9015C116.124 40.6146 115.445 40.4712 114.618 40.4712H112.137L108.744 60.7752H101.706Z" fill="black"/>
<path d="M94.8769 42.9522C94.9529 42.1167 94.7503 41.4627 94.2693 40.9902C93.7883 40.5091 92.9781 40.2686 91.8389 40.2686C91.1131 40.2686 90.5055 40.353 90.0161 40.5218C89.5351 40.6906 89.1595 40.9226 88.8895 41.218C88.6279 41.5134 88.4633 41.8551 88.3958 42.2433C88.3199 42.5471 88.3241 42.8256 88.4085 43.0788C88.5013 43.3235 88.6743 43.5471 88.9275 43.7497C89.1891 43.9522 89.5308 44.1337 89.9528 44.294C90.3832 44.4543 90.8937 44.5978 91.4845 44.7244L93.5098 45.1801C94.8938 45.4839 96.0541 45.8847 96.9909 46.3826C97.936 46.8721 98.6786 47.4544 99.2187 48.1295C99.7588 48.8046 100.113 49.5599 100.282 50.3953C100.459 51.2308 100.463 52.1422 100.295 53.1295C100.008 54.8342 99.3453 56.2773 98.3073 57.4587C97.2693 58.6402 95.9149 59.5389 94.244 60.155C92.5731 60.771 90.6406 61.079 88.4464 61.079C86.2017 61.079 84.2945 60.7457 82.7249 60.079C81.1637 59.4039 80.0328 58.3743 79.3324 56.9904C78.6404 55.5979 78.4716 53.8215 78.8261 51.6612H85.5097C85.4084 52.4544 85.4928 53.1211 85.7629 53.6612C86.0329 54.2013 86.4675 54.6106 87.0667 54.8891C87.6658 55.1675 88.4127 55.3068 89.3072 55.3068C90.0667 55.3068 90.7165 55.214 91.2566 55.0283C91.7967 54.8426 92.2229 54.5853 92.5351 54.2561C92.8473 53.927 93.0372 53.5515 93.1047 53.1295C93.1722 52.7414 93.1047 52.3954 92.9022 52.0916C92.6997 51.7878 92.3326 51.5135 91.8009 51.2688C91.2693 51.024 90.5393 50.8004 89.611 50.5979L87.13 50.0409C84.9274 49.5346 83.2649 48.6991 82.1426 47.5345C81.0202 46.37 80.6236 44.775 80.9527 42.7497C81.2227 41.0956 81.9021 39.6526 82.9907 38.4205C84.0877 37.18 85.4802 36.2179 87.1679 35.5344C88.8642 34.8424 90.7418 34.4964 92.8009 34.4964C94.8938 34.4964 96.6449 34.8466 98.0542 35.547C99.4719 36.2475 100.489 37.2306 101.105 38.4965C101.729 39.7623 101.898 41.2475 101.611 42.9522H94.8769Z" fill="black"/>
<path d="M43.1327 53.177L45.0089 71L33.7522 63.4956V57.8673L30 55.0531L32.3451 34.885L47.823 29.2567V55.0531L46.885 54.5841L46.4159 48.4867L36.5664 42.8584L36.0973 48.9558L43.1327 53.177Z" fill="#0C0707"/>
<path d="M52.5133 53.177L50.6371 71L61.8938 63.4956V57.8673L65.646 55.0531L63.3009 34.885L47.823 29.2567V55.0531L48.761 54.5841L49.2301 48.4867L59.0796 42.8584L59.5487 48.9558L52.5133 53.177Z" fill="#0C0707"/>
<path d="M47.823 28.3186L35.1592 33.0088L38.4424 28.3186L47.823 23.6283V28.3186Z" fill="#FF5F3F"/>
<path d="M47.823 28.3186L60.4867 33.0088L57.2035 28.3186L47.823 23.6283V28.3186Z" fill="#FF5F3F"/>
<path d="M47.823 22.6903L45.0089 24.0973L45.5068 21.7522L47.823 18V22.6903Z" fill="black"/>
<path d="M47.823 22.6903L50.6372 24.0973L50.1392 21.7522L47.823 18V22.6903Z" fill="black"/>
</svg>
